<svg height="30" viewBox="0 0 120 30" width="120" xmlns="http://www.w3.org/2000/svg" xmlns:xlink="http://www.w3.org/1999/xlink"><linearGradient id="a" x1="0%" x2="100%" y1="0%" y2="100%"><stop offset="0" stop-color="#e10600"/><stop offset="1" stop-color="#fe5000"/></linearGradient><path d="m211.544038 31v22.4639847c0 2.0220624-.33701 3.1823617-1.83432 3.2575743-.674021.0373171-1.422965-.1495574-2.209226-.5241741l-1.647446 3.5566891c1.310725.8614738 2.733111 1.2358012 4.081442 1.2358012 4.155786 0 6.139953-2.9575916 6.139953-7.5258905v-22.4639847zm-50.544038 24.2980155h4.547181v-24.2980155h-4.547181zm96.434729-24.2635913v24.2635913h4.23476v-7.740825l6.699709 7.740825h5.102597v-.3124216l-7.949106-8.7472277 6.977128-7.8102521v-.2429946h-5.067884l-5.762444 6.8729871v-14.0236824zm-17.967138 15.7246447c0 6.0745762 4.13033 9.0596494 9.094363 9.0596494 2.533797 0 4.616608-.7636974 6.595279-2.7073651l-2.846508-2.776792c-1.041117 1.0411162-2.394944 1.4229649-3.748771 1.4229649-2.638227 0-4.859892-1.7353866-4.859892-4.9984572 0-2.9853625 2.082811-5.0681735 4.929319-5.0681735 1.17997 0 2.429946.4512757 3.436349 1.3541165l2.672941-2.8117949c-1.87453-1.8398164-3.74906-2.5340868-6.178717-2.5340868-4.964033 0-9.094363 2.9853625-9.094363 9.0599387zm-21.090197 0c0 6.0745762 4.130619 9.0596494 9.094073 9.0596494 1.981274 0 3.685708-.4697896 5.280794-1.6020288v1.0240487h4.406592v-17.0750004h-4.406592v1.2768788c-1.587854-1.2496866-3.237614-1.7434864-5.280794-1.7434864-4.963454 0-9.094073 2.9853625-9.094073 9.0599387zm4.374481-.0237209c0-2.77361 2.255801-5.0294101 5.029411-5.0294101 2.77332 0 5.02941 2.2558001 5.02941 5.0294101s-2.25609 5.0291208-5.02941 5.0291208c-2.77361 0-5.029411-2.2555108-5.029411-5.0291208zm-40.596879-8.584942-2.360809 5.727441-2.603224 7.1506952-2.638227-7.2204115-2.36023-5.6577247h-4.616898l7.324263 17.2170366h4.581895l7.289549-17.2170366zm20.714423.0347135-3.124216 7.4978304-1.77039 4.7210383-1.631246-4.8251789-2.603224-7.3936898h-4.929609l6.838563 16.8354772-2.55694 5.9794033h4.651322l9.811776-22.8148805zm73.221222 15.5936011c0 1.179681.956647 2.1363277 2.136328 2.1363277 1.180259 0 2.137195-.9566467 2.137195-2.1363277 0-1.1802596-.956936-2.1369062-2.137195-2.1369062-1.179681 0-2.136328.9566466-2.136328 2.1369062z" fill="url(#a)" fill-rule="evenodd" transform="translate(-161 -31)"/></svg>
