<svg height="30" viewBox="0 0 120 30" width="120" xmlns="http://www.w3.org/2000/svg"><path d="m278.132971 53.6416588c-1.178603 0-2.134963.9567484-2.134963 2.1366305s.95636 2.1362718 2.134963 2.1362718c1.17932 0 2.135322-.9563897 2.135322-2.1362718s-.956002-2.1366305-2.135322-2.1366305zm-20.775741-20.6068614v24.2627381h4.231929v-7.7404427l6.693804 7.7404427h5.098676v-.3121002l-7.942664-8.7474141 6.971249-7.8096787v-.2428641h-5.063906l-5.757159 6.872302v-14.022983zm-24.604409 15.7000729c0-2.7733866-2.25397-5.0287586-5.024834-5.0287586-2.77158 0-5.02555 2.255372-5.02555 5.0287586 0 2.7741041 2.25397 5.0298349 5.02555 5.0298349 2.770864 0 5.024834-2.2557308 5.024834-5.0298349zm4.344843-8.5687637v17.0743899h-4.402913v-1.0241908c-1.594053 1.132529-3.296718 1.6021142-5.276111 1.6021142-4.959595 0-9.087572-2.9853995-9.087572-9.0595143s4.127977-9.0595143 9.087572-9.0595143c2.041406 0 3.689586.4936205 5.276111 1.7434561v-1.2767408zm15.140099 12.1676014c-1.040597 1.0417688-2.393409 1.4234637-3.745863 1.4234637-2.636443 0-4.856001-1.7359226-4.856001-4.9982661 0-2.9853994 2.081194-5.0675021 4.925183-5.0675021 1.17932 0 2.427821.4509309 3.43329 1.3535102l2.671213-2.8114126c-1.872932-1.8403147-3.746222-2.5341098-6.173685-2.5341098-4.959595 0-9.087214 2.9853995-9.087214 9.0595143s4.127619 9.0595143 9.087214 9.0595143c2.531773 0 4.612968-.7633898 6.589494-2.7073792zm-49.402024-12.1482296-3.121434 7.4975785-1.768621 4.7209633-1.630615-4.8253554-2.601314-7.3931864h-4.925183l6.832885 16.8347543-2.554357 5.9797673h4.647022l9.804125-22.8145216zm-20.697598-.0347974-2.358998 5.7268586-2.600956 7.1510397-2.635726-7.2202758-2.358281-5.6576225h-4.613326l7.318593 17.216808h4.577481l7.284181-17.216808zm-21.138141 17.1468545h4.543428v-24.2975355h-4.543428zm55.03014-24.2975355v22.463678c0 4.5677831-1.982261 7.5259187-6.134614 7.5259187-1.347435 0-2.768712-.3745202-4.077793-1.2358449l1.646029-3.5568656c.785377.3745202 1.533116.5617803 2.207371.5244717 1.495836-.0753345 1.832426-1.2354861 1.832426-3.2576799v-22.463678z" fill="#fefefe" fill-rule="evenodd" transform="translate(-161 -33)"/></svg>
